<svg xmlns="http://www.w3.org/2000/svg" width="182" height="36" viewBox="0 0 182 36" fill="none"><path d="M7.02633 32.4001H9.90792L2.87369 18.0314L8.25002 7.05923H14.55L21.5843 20.8175L22.8711 18.0314L15.7737 3.6001H7.02633L0 18.0314L7.02633 32.4001Z" fill="#3551F2"></path><path d="M18.2842 28.8862L11.4316 15.1827L9.90792 18.0314L17.179 32.4001H25.6264L32.8422 18.0314L25.6264 3.6001H22.8711L29.9685 18.0314L24.4579 28.8862H18.2842Z" fill="#3551F2"></path><path d="M11.9211 32.4001H14.55H15.1421L7.95002 17.9688L11.4316 10.8158L19.5079 27.1253H23.4237L27.8843 18.0314L20.85 3.6001H17.9132L24.7658 18.0314L21.5843 24.8871L13.5158 8.87488H9.35528L4.88685 18.0314L11.9211 32.4001Z" fill="#3551F2"></path><path d="M55.8308 11.016C56.2468 11.224 56.4868 11.552 56.5508 12C56.6308 12.448 56.5188 12.856 56.2148 13.224C56.0068 13.512 55.7348 13.672 55.3988 13.704C55.0788 13.736 54.7508 13.672 54.4148 13.512C54.0308 13.336 53.6228 13.2 53.1908 13.104C52.7748 13.008 52.3348 12.96 51.8708 12.96C51.0068 12.96 50.2308 13.096 49.5428 13.368C48.8708 13.64 48.2948 14.032 47.8148 14.544C47.3348 15.04 46.9668 15.632 46.7108 16.32C46.4708 17.008 46.3508 17.768 46.3508 18.6C46.3508 19.576 46.4868 20.424 46.7588 21.144C47.0468 21.864 47.4388 22.464 47.9348 22.944C48.4308 23.424 49.0148 23.784 49.6868 24.024C50.3588 24.248 51.0868 24.36 51.8708 24.36C52.3028 24.36 52.7348 24.32 53.1668 24.24C53.5988 24.16 54.0148 24.016 54.4148 23.808C54.7508 23.648 55.0788 23.592 55.3988 23.64C55.7348 23.688 56.0148 23.856 56.2388 24.144C56.5588 24.544 56.6708 24.96 56.5748 25.392C56.4948 25.808 56.2548 26.112 55.8548 26.304C55.4388 26.512 55.0068 26.688 54.5588 26.832C54.1268 26.96 53.6868 27.056 53.2388 27.12C52.7908 27.2 52.3348 27.24 51.8708 27.24C50.7188 27.24 49.6228 27.056 48.5828 26.688C47.5588 26.32 46.6388 25.776 45.8228 25.056C45.0228 24.336 44.3908 23.44 43.9268 22.368C43.4628 21.28 43.2308 20.024 43.2308 18.6C43.2308 17.368 43.4388 16.232 43.8548 15.192C44.2868 14.152 44.8868 13.256 45.6548 12.504C46.4388 11.736 47.3588 11.144 48.4148 10.728C49.4708 10.296 50.6228 10.08 51.8708 10.08C52.5748 10.08 53.2628 10.16 53.9348 10.32C54.6068 10.48 55.2388 10.712 55.8308 11.016ZM69.3896 13.92C69.8056 13.92 70.1496 14.056 70.4216 14.328C70.6936 14.6 70.8296 14.952 70.8296 15.384V25.536C70.8296 25.952 70.6936 26.304 70.4216 26.592C70.1496 26.864 69.8056 27 69.3896 27C68.9736 27 68.6296 26.864 68.3576 26.592C68.0856 26.304 67.9496 25.952 67.9496 25.536V24.36L68.4776 24.576C68.4776 24.784 68.3656 25.04 68.1416 25.344C67.9176 25.632 67.6136 25.92 67.2296 26.208C66.8456 26.496 66.3896 26.744 65.8616 26.952C65.3496 27.144 64.7896 27.24 64.1816 27.24C63.0776 27.24 62.0776 26.96 61.1816 26.4C60.2856 25.824 59.5736 25.04 59.0456 24.048C58.5336 23.04 58.2776 21.888 58.2776 20.592C58.2776 19.28 58.5336 18.128 59.0456 17.136C59.5736 16.128 60.2776 15.344 61.1576 14.784C62.0376 14.208 63.0136 13.92 64.0856 13.92C64.7736 13.92 65.4056 14.024 65.9816 14.232C66.5576 14.44 67.0536 14.704 67.4696 15.024C67.9016 15.344 68.2296 15.672 68.4536 16.008C68.6936 16.328 68.8136 16.6 68.8136 16.824L67.9496 17.136V15.384C67.9496 14.968 68.0856 14.624 68.3576 14.352C68.6296 14.064 68.9736 13.92 69.3896 13.92ZM64.5416 24.6C65.2456 24.6 65.8616 24.424 66.3896 24.072C66.9176 23.72 67.3256 23.24 67.6136 22.632C67.9176 22.024 68.0696 21.344 68.0696 20.592C68.0696 19.824 67.9176 19.136 67.6136 18.528C67.3256 17.92 66.9176 17.44 66.3896 17.088C65.8616 16.736 65.2456 16.56 64.5416 16.56C63.8536 16.56 63.2456 16.736 62.7176 17.088C62.1896 17.44 61.7736 17.92 61.4696 18.528C61.1816 19.136 61.0376 19.824 61.0376 20.592C61.0376 21.344 61.1816 22.024 61.4696 22.632C61.7736 23.24 62.1896 23.72 62.7176 24.072C63.2456 24.424 63.8536 24.6 64.5416 24.6ZM84.4599 9.24C84.8759 9.24 85.2199 9.376 85.4919 9.648C85.7639 9.92 85.8999 10.272 85.8999 10.704V25.536C85.8999 25.952 85.7639 26.304 85.4919 26.592C85.2199 26.864 84.8759 27 84.4599 27C84.0439 27 83.6999 26.864 83.4279 26.592C83.1559 26.304 83.0199 25.952 83.0199 25.536V24.36L83.5479 24.576C83.5479 24.784 83.4359 25.04 83.2119 25.344C82.9879 25.632 82.6839 25.92 82.2999 26.208C81.9159 26.496 81.4599 26.744 80.9319 26.952C80.4199 27.144 79.8599 27.24 79.2519 27.24C78.1479 27.24 77.1479 26.96 76.2519 26.4C75.3559 25.824 74.6439 25.04 74.1159 24.048C73.6039 23.04 73.3479 21.888 73.3479 20.592C73.3479 19.28 73.6039 18.128 74.1159 17.136C74.6439 16.128 75.3479 15.344 76.2279 14.784C77.1079 14.208 78.0839 13.92 79.1559 13.92C79.8439 13.92 80.4759 14.024 81.0519 14.232C81.6279 14.44 82.1239 14.704 82.5399 15.024C82.9719 15.344 83.2999 15.672 83.5239 16.008C83.7639 16.328 83.8839 16.6 83.8839 16.824L83.0199 17.136V10.704C83.0199 10.288 83.1559 9.944 83.4279 9.672C83.6999 9.384 84.0439 9.24 84.4599 9.24ZM79.6119 24.6C80.3159 24.6 80.9319 24.424 81.4599 24.072C81.9879 23.72 82.3959 23.24 82.6839 22.632C82.9879 22.024 83.1399 21.344 83.1399 20.592C83.1399 19.824 82.9879 19.136 82.6839 18.528C82.3959 17.92 81.9879 17.44 81.4599 17.088C80.9319 16.736 80.3159 16.56 79.6119 16.56C78.9239 16.56 78.3159 16.736 77.7879 17.088C77.2599 17.44 76.8439 17.92 76.5399 18.528C76.2519 19.136 76.1079 19.824 76.1079 20.592C76.1079 21.344 76.2519 22.024 76.5399 22.632C76.8439 23.24 77.2599 23.72 77.7879 24.072C78.3159 24.424 78.9239 24.6 79.6119 24.6ZM90.4583 27C90.0423 27 89.6983 26.864 89.4263 26.592C89.1543 26.304 89.0183 25.952 89.0183 25.536V15.624C89.0183 15.208 89.1543 14.864 89.4263 14.592C89.6983 14.304 90.0423 14.16 90.4583 14.16C90.8743 14.16 91.2183 14.304 91.4903 14.592C91.7623 14.864 91.8983 15.208 91.8983 15.624V17.88L91.7303 16.272C91.9063 15.888 92.1303 15.552 92.4023 15.264C92.6903 14.96 93.0103 14.712 93.3623 14.52C93.7143 14.312 94.0903 14.16 94.4903 14.064C94.8903 13.968 95.2903 13.92 95.6903 13.92C96.1703 13.92 96.5703 14.056 96.8903 14.328C97.2263 14.6 97.3943 14.92 97.3943 15.288C97.3943 15.816 97.2583 16.2 96.9863 16.44C96.7143 16.664 96.4183 16.776 96.0983 16.776C95.7943 16.776 95.5143 16.72 95.2583 16.608C95.0183 16.496 94.7383 16.44 94.4183 16.44C94.1303 16.44 93.8343 16.512 93.5303 16.656C93.2423 16.784 92.9703 16.992 92.7143 17.28C92.4743 17.568 92.2743 17.928 92.1143 18.36C91.9703 18.776 91.8983 19.272 91.8983 19.848V25.536C91.8983 25.952 91.7623 26.304 91.4903 26.592C91.2183 26.864 90.8743 27 90.4583 27ZM104.933 27.24C103.573 27.24 102.389 26.96 101.381 26.4C100.389 25.824 99.6214 25.048 99.0774 24.072C98.5494 23.096 98.2854 21.992 98.2854 20.76C98.2854 19.32 98.5734 18.096 99.1494 17.088C99.7414 16.064 100.509 15.28 101.453 14.736C102.397 14.192 103.397 13.92 104.453 13.92C105.269 13.92 106.037 14.088 106.757 14.424C107.493 14.76 108.141 15.224 108.701 15.816C109.261 16.392 109.701 17.064 110.021 17.832C110.357 18.6 110.525 19.416 110.525 20.28C110.509 20.664 110.357 20.976 110.069 21.216C109.781 21.456 109.445 21.576 109.061 21.576H99.8934L99.1734 19.176H107.981L107.453 19.656V19.008C107.421 18.544 107.253 18.128 106.949 17.76C106.661 17.392 106.293 17.104 105.845 16.896C105.413 16.672 104.949 16.56 104.453 16.56C103.973 16.56 103.525 16.624 103.109 16.752C102.693 16.88 102.333 17.096 102.029 17.4C101.725 17.704 101.485 18.112 101.309 18.624C101.133 19.136 101.045 19.784 101.045 20.568C101.045 21.432 101.221 22.168 101.573 22.776C101.941 23.368 102.405 23.824 102.965 24.144C103.541 24.448 104.149 24.6 104.789 24.6C105.381 24.6 105.853 24.552 106.205 24.456C106.557 24.36 106.837 24.248 107.045 24.12C107.269 23.976 107.469 23.856 107.645 23.76C107.933 23.616 108.205 23.544 108.461 23.544C108.813 23.544 109.101 23.664 109.325 23.904C109.565 24.144 109.685 24.424 109.685 24.744C109.685 25.176 109.461 25.568 109.013 25.92C108.597 26.272 108.013 26.584 107.261 26.856C106.509 27.112 105.733 27.24 104.933 27.24ZM131.768 11.016C132.184 11.224 132.424 11.552 132.488 12C132.568 12.448 132.456 12.856 132.152 13.224C131.944 13.512 131.672 13.672 131.336 13.704C131.016 13.736 130.688 13.672 130.352 13.512C129.968 13.336 129.56 13.2 129.128 13.104C128.712 13.008 128.272 12.96 127.808 12.96C126.944 12.96 126.168 13.096 125.48 13.368C124.808 13.64 124.232 14.032 123.752 14.544C123.272 15.04 122.904 15.632 122.648 16.32C122.408 17.008 122.288 17.768 122.288 18.6C122.288 19.576 122.424 20.424 122.696 21.144C122.984 21.864 123.376 22.464 123.872 22.944C124.368 23.424 124.952 23.784 125.624 24.024C126.296 24.248 127.024 24.36 127.808 24.36C128.24 24.36 128.672 24.32 129.104 24.24C129.536 24.16 129.952 24.016 130.352 23.808C130.688 23.648 131.016 23.592 131.336 23.64C131.672 23.688 131.952 23.856 132.176 24.144C132.496 24.544 132.608 24.96 132.512 25.392C132.432 25.808 132.192 26.112 131.792 26.304C131.376 26.512 130.944 26.688 130.496 26.832C130.064 26.96 129.624 27.056 129.176 27.12C128.728 27.2 128.272 27.24 127.808 27.24C126.656 27.24 125.56 27.056 124.52 26.688C123.496 26.32 122.576 25.776 121.76 25.056C120.96 24.336 120.328 23.44 119.864 22.368C119.4 21.28 119.168 20.024 119.168 18.6C119.168 17.368 119.376 16.232 119.792 15.192C120.224 14.152 120.824 13.256 121.592 12.504C122.376 11.736 123.296 11.144 124.352 10.728C125.408 10.296 126.56 10.08 127.808 10.08C128.512 10.08 129.2 10.16 129.872 10.32C130.544 10.48 131.176 10.712 131.768 11.016ZM136.255 27C135.839 27 135.495 26.864 135.223 26.592C134.951 26.304 134.815 25.952 134.815 25.536V15.624C134.815 15.208 134.951 14.864 135.223 14.592C135.495 14.304 135.839 14.16 136.255 14.16C136.671 14.16 137.015 14.304 137.287 14.592C137.559 14.864 137.695 15.208 137.695 15.624V17.88L137.527 16.272C137.703 15.888 137.927 15.552 138.199 15.264C138.487 14.96 138.807 14.712 139.159 14.52C139.511 14.312 139.887 14.16 140.287 14.064C140.687 13.968 141.087 13.92 141.487 13.92C141.967 13.92 142.367 14.056 142.687 14.328C143.023 14.6 143.191 14.92 143.191 15.288C143.191 15.816 143.055 16.2 142.783 16.44C142.511 16.664 142.215 16.776 141.895 16.776C141.591 16.776 141.311 16.72 141.055 16.608C140.815 16.496 140.535 16.44 140.215 16.44C139.927 16.44 139.631 16.512 139.327 16.656C139.039 16.784 138.767 16.992 138.511 17.28C138.271 17.568 138.071 17.928 137.911 18.36C137.767 18.776 137.695 19.272 137.695 19.848V25.536C137.695 25.952 137.559 26.304 137.287 26.592C137.015 26.864 136.671 27 136.255 27ZM150.73 27.24C149.37 27.24 148.186 26.96 147.178 26.4C146.186 25.824 145.418 25.048 144.874 24.072C144.346 23.096 144.082 21.992 144.082 20.76C144.082 19.32 144.37 18.096 144.946 17.088C145.538 16.064 146.306 15.28 147.25 14.736C148.194 14.192 149.194 13.92 150.25 13.92C151.066 13.92 151.834 14.088 152.554 14.424C153.29 14.76 153.938 15.224 154.498 15.816C155.058 16.392 155.498 17.064 155.818 17.832C156.154 18.6 156.322 19.416 156.322 20.28C156.306 20.664 156.154 20.976 155.866 21.216C155.578 21.456 155.242 21.576 154.858 21.576H145.69L144.97 19.176H153.778L153.25 19.656V19.008C153.218 18.544 153.05 18.128 152.746 17.76C152.458 17.392 152.09 17.104 151.642 16.896C151.21 16.672 150.746 16.56 150.25 16.56C149.77 16.56 149.322 16.624 148.906 16.752C148.49 16.88 148.13 17.096 147.826 17.4C147.522 17.704 147.282 18.112 147.106 18.624C146.93 19.136 146.842 19.784 146.842 20.568C146.842 21.432 147.018 22.168 147.37 22.776C147.738 23.368 148.202 23.824 148.762 24.144C149.338 24.448 149.946 24.6 150.586 24.6C151.178 24.6 151.65 24.552 152.002 24.456C152.354 24.36 152.634 24.248 152.842 24.12C153.066 23.976 153.266 23.856 153.442 23.76C153.73 23.616 154.002 23.544 154.258 23.544C154.61 23.544 154.898 23.664 155.122 23.904C155.362 24.144 155.482 24.424 155.482 24.744C155.482 25.176 155.258 25.568 154.81 25.92C154.394 26.272 153.81 26.584 153.058 26.856C152.306 27.112 151.53 27.24 150.73 27.24ZM173.623 14.16C173.991 14.16 174.311 14.304 174.583 14.592C174.855 14.864 174.991 15.216 174.991 15.648C174.991 15.76 174.983 15.864 174.967 15.96C174.951 16.04 174.927 16.12 174.895 16.2L171.223 26.088C171.111 26.408 170.911 26.656 170.623 26.832C170.335 26.992 170.031 27.048 169.711 27C169.167 26.968 168.759 26.664 168.487 26.088L166.111 19.248L166.735 19.272L164.503 26.088C164.231 26.664 163.823 26.968 163.279 27C162.975 27.048 162.671 26.992 162.367 26.832C162.079 26.656 161.879 26.408 161.767 26.088L158.095 16.2C158.031 16.024 157.999 15.84 157.999 15.648C157.999 15.264 158.127 14.92 158.383 14.616C158.639 14.312 158.991 14.16 159.439 14.16C159.743 14.16 160.015 14.232 160.255 14.376C160.495 14.52 160.663 14.752 160.759 15.072L163.663 22.944L163.063 22.896L165.247 16.968C165.503 16.376 165.943 16.08 166.567 16.08C166.919 16.08 167.183 16.16 167.359 16.32C167.551 16.464 167.703 16.68 167.815 16.968L169.999 22.896L169.279 22.992L172.231 15.072C172.423 14.464 172.887 14.16 173.623 14.16Z" fill="#060A39"></path></svg>